<svg xmlns="http://www.w3.org/2000/svg" xmlns:xlink="http://www.w3.org/1999/xlink" id="Layer_1" x="0px" y="0px" viewBox="0 0 582.8 206.8" style="enable-background:new 0 0 582.8 206.8;" xml:space="preserve"><style type="text/css">	.st0{fill-rule:evenodd;clip-rule:evenodd;fill:#00519C;}	.st1{fill-rule:evenodd;clip-rule:evenodd;fill:#FFFFFF;}	.st2{fill:#00519C;}	.st3{fill:#808184;}</style><g>	<path class="st0" d="M181.6,95.1c-9.7,38.1-48.1,61.2-85.7,51.5c-37.6-9.6-60.2-48.2-50.5-86.3c9.7-38.1,48.1-61.2,85.7-51.5  C168.7,18.4,191.3,57.1,181.6,95.1"></path>	<path class="st1" d="M119.3,48.8L82,98.1c0,0,1.5,2.4,3.9,4.9l39.4-51.9C125.3,51.1,122.8,49.6,119.3,48.8"></path>	<path class="st1" d="M77.4,87.2l29.8-38.8c0,0-6.5,1.1-11.1,4.1L76.5,78.3C76.5,78.3,76.2,81.6,77.4,87.2"></path>	<path class="st1" d="M94.1,109.6l39.5-52.3c0,0,2.9,3.2,4,5.4l-37.7,49.7C99.9,112.3,97.1,111.3,94.1,109.6"></path>	<path class="st1" d="M141.7,73.1c0,0,1,4.2,0.6,9.4l-23.9,31.2c0,0-3.2,0.8-8,0.6L141.7,73.1z"></path>	<path class="st1" d="M133.3,107c-0.6,0.6-4.5,3.1-8.1,4.7l18.9-23.8c0,0,0.8-2.1,1.1-4.8l30.1-39.4c0,0,1.3,2.4,2.9,6.1l-39.8,52.2  C136.8,104.1,133.9,106.5,133.3,107"></path>	<path class="st1" d="M140.2,61.3l25.1-31.9c0,0,2.2,2.3,4.1,4.9l-26,33.4C143.5,67.6,142.4,64.6,140.2,61.3"></path>	<path class="st1" d="M153.1,18.7l-24.3,31.4c0,0,2.2,1.2,5.1,3.7L158,22.4C158,22.4,155.4,20.3,153.1,18.7"></path>	<path class="st1" d="M119.2,46.3l25.3-32.6c-2.1-1-4.5-2.1-6.2-2.7l-26.5,34.3C111.7,45.3,114.9,45.2,119.2,46.3"></path>	<path class="st1" d="M128.1,8.1c0,0-3.2-0.7-6.7-1L84.7,55.1c0,0-6.2,8.6-7.3,16.6L93,50.4c0,0,2.3-1.5,4-2L128.1,8.1z"></path>	<path class="st2" d="M320.1,84.6c0,16.5-5.9,30.7-17.6,42.5c-11.7,11.8-25.9,17.7-42.5,17.7c-16.5,0-30.6-5.9-42.5-17.7  c-11.9-11.8-17.8-26-17.8-42.5c0-16.7,5.9-30.9,17.7-42.8c11.8-11.8,26.1-17.7,42.9-17.7c16.9,0,31.1,5.8,42.6,17.3  C314.4,53.1,320.1,67.5,320.1,84.6 M298.5,84.6c0-10.3-3.6-19.4-10.8-27c-7.4-7.9-16.5-11.8-27.2-11.8c-11,0-20.4,3.8-28,11.4  c-7.6,7.6-11.4,16.8-11.4,27.4c0,10.8,3.8,20,11.5,27.5c7.7,7.5,16.8,11.3,27.5,11.3c10.6,0,19.7-3.8,27.2-11.5  C294.8,104.2,298.5,95.1,298.5,84.6"></path>	<path class="st2" d="M409.7,105.8c0,11.4-4.2,20.9-12.8,28.6c-7.7,7-16.3,10.5-25.7,10.5c-9.9,0-18.5-3.2-26-9.5  c-8.9-7.6-13.3-18-13.3-31.4v-3.8V27h21.5v73.1v4.5c0,6.2,1.7,11,5.1,14.5c3.4,3.4,7.7,5.2,13.1,5.2c4.4,0,8.2-1.7,11.4-5  c3.5-3.7,5.3-8.5,5.3-14.4v-7.3V27h21.4v71V105.8z"></path>	<polygon class="st2" points="541.1,141.9 519.5,141.9 519.5,56.1 490.1,141.9 471.8,141.9 442.4,56.7 442.4,141.8 420.6,141.9   420.8,27 449.9,27 480.7,114.7 512.1,27 541.1,27  "></polygon>	<path class="st3" d="M74,188.2c0,8-6.5,14.3-14.5,14.3c-7.7,0-14.5-6.2-14.5-14c0-8,6.5-14.2,14.5-14.2  C67.3,174.2,74,180.3,74,188.2 M59.6,176.7c-6.5,0-11.7,5.2-11.7,11.7c0,6.3,5.5,11.4,11.7,11.4c6.5,0,11.7-5.1,11.7-11.6  C71.3,181.9,65.8,176.8,59.6,176.7L59.6,176.7z"></path>	<path class="st3" d="M78.8,174.6H86c2.6,0,5.1,0.1,7.3,1.5c2.4,1.5,3.6,4,3.6,6.7c0,2.5-1,4.8-3.1,6.3c-2.1,1.6-4.6,1.8-7.1,1.8  h-5.1v11h-2.7V174.6z M86.3,188.5c1.9,0,3.9-0.1,5.5-1.1c1.6-1,2.4-2.8,2.4-4.5c0-2.4-1.3-4.2-3.4-5.1c-1.8-0.8-3.8-0.6-5.7-0.6  h-3.5v11.4H86.3z"></path>	<polygon class="st3" points="101.1,174.6 116.1,174.6 116.1,177.1 103.9,177.1 103.9,186.9 115.7,186.9 115.7,189.4 103.9,189.4   103.9,199.5 116.1,199.5 116.1,202 101.1,202  "></polygon>	<polygon class="st3" points="121.4,174.6 125.1,174.6 140.4,197.3 140.4,174.6 143.1,174.6 143.1,202 140.4,202 124.1,177.9   124.1,202 121.4,202  "></polygon>	<path class="st3" d="M162.5,174.6v16.6c0,2,0.2,4,1.3,5.7c1.2,1.8,3.2,2.9,5.3,2.9c1.9,0,3.9-0.9,5-2.5c1.3-1.8,1.5-4,1.5-6.1  v-16.6h2.7v16.6c0,2.8-0.3,5.4-2,7.7c-1.7,2.3-4.5,3.5-7.3,3.5c-2.7,0-5.4-1.2-7.1-3.3c-1.9-2.3-2.2-5.1-2.2-8v-16.6H162.5z"></path>	<polygon class="st3" points="184.4,174.6 188.1,174.6 203.4,197.3 203.4,174.6 206.2,174.6 206.2,202 203.4,202 187.1,177.9   187.1,202 184.4,202  "></polygon>	<rect x="212.2" y="174.6" class="st3" width="2.7" height="27.4"></rect>	<polygon class="st3" points="218.5,174.6 221.5,174.6 231.1,198.6 240.7,174.6 243.7,174.6 232.4,202 229.8,202  "></polygon>	<polygon class="st3" points="247.3,174.6 262.3,174.6 262.3,177.1 250,177.1 250,186.9 261.9,186.9 261.9,189.4 250,189.4   250,199.5 262.3,199.5 262.3,202 247.3,202  "></polygon>	<path class="st3" d="M267.5,174.6h6.5c2.6,0,5.5,0,7.8,1.4c2.8,1.6,4.3,4.4,4.3,7.6c0,4.5-3.6,8.1-8.1,8.2l7.7,10.2h-3.4l-9.3-12.4  h0.8c1.9,0,4.2,0.1,6-0.7c2.3-1,3.6-3.1,3.6-5.6c0-1.9-1-3.8-2.6-4.9c-1.8-1.3-4-1.3-6.2-1.3h-4.3V202h-2.8V174.6z"></path>	<path class="st3" d="M291.3,194.3c0.1,3,2.4,5.5,5.5,5.5c3.1,0,5.7-2.3,5.7-5.4c0-1.5-0.7-3-1.9-3.9c-1.2-1-2.7-1.4-4.2-1.8  c-1.7-0.4-3.4-0.9-4.8-2.1c-1.5-1.3-2.3-3.1-2.3-5.1c0-4.4,3.5-7.4,7.8-7.4c4.2,0,7.6,3.2,7.5,7.4h-2.9c-0.2-2.8-2.2-4.8-5-4.8  c-2.7,0-4.7,2.2-4.7,4.8c0,3.3,2.7,4.1,5.4,4.8c2,0.6,3.7,0.9,5.3,2.3c1.6,1.4,2.6,3.6,2.6,5.7c0,4.5-3.9,8-8.3,8  c-4.7,0-8.5-3.4-8.5-8.2H291.3z"></path>	<rect x="309.2" y="174.6" class="st3" width="2.7" height="27.4"></rect>	<polygon class="st3" points="321.7,177.1 315.4,177.1 315.4,174.6 330.6,174.6 330.6,177.1 324.4,177.1 324.4,202 321.7,202  "></polygon>	<polygon class="st3" points="340.9,192.8 331.4,174.6 334.4,174.6 342.2,190 350.1,174.6 353.1,174.6 343.6,192.8 343.6,202   340.9,202  "></polygon>	<polygon class="st3" points="367,174.6 371.2,174.6 381.2,197.9 391.2,174.6 395.4,174.6 395.4,202 392.7,202 392.7,177.6   382.4,202 380.1,202 369.8,177.6 369.8,202 367,202  "></polygon>	<path class="st3" d="M410.8,174.6h3l11.7,27.4h-2.9l-4-9.2H406l-4,9.2h-3L410.8,174.6z M417.6,190.3l-5.3-12.6l-5.3,12.6H417.6z"></path>	<polygon class="st3" points="429.2,174.6 432,174.6 432,199.5 443.3,199.5 443.3,202 429.2,202  "></polygon>	<path class="st3" d="M456.1,174.6h3l11.8,27.4h-3l-4-9.2h-12.7l-4,9.2h-3L456.1,174.6z M462.9,190.3l-5.3-12.6l-5.3,12.6H462.9z"></path>	<polygon class="st3" points="476.7,192.8 467.2,174.6 470.2,174.6 478.1,190 486,174.6 489,174.6 479.5,192.8 479.5,202 476.7,202    "></polygon>	<path class="st3" d="M493.2,194.3c0.1,3,2.4,5.5,5.5,5.5c3.1,0,5.7-2.3,5.7-5.4c0-1.5-0.7-3-1.9-3.9c-1.3-1-2.7-1.4-4.2-1.8  c-1.7-0.4-3.5-0.9-4.8-2.1c-1.5-1.3-2.3-3.1-2.3-5.1c0-4.4,3.5-7.4,7.8-7.4c4.2,0,7.6,3.2,7.5,7.4h-2.9c-0.2-2.8-2.2-4.8-5-4.8  c-2.7,0-4.7,2.2-4.7,4.8c0,3.3,2.7,4.1,5.4,4.8c2,0.6,3.7,0.9,5.3,2.3c1.6,1.4,2.6,3.6,2.6,5.7c0,4.5-3.9,8-8.3,8  c-4.7,0-8.5-3.4-8.5-8.2H493.2z"></path>	<rect x="511.1" y="174.6" class="st3" width="2.7" height="27.4"></rect>	<path class="st3" d="M529.2,174.6h3L544,202h-3l-4-9.2h-12.7l-4,9.2h-3L529.2,174.6z M536,190.3l-5.3-12.6l-5.3,12.6H536z"></path></g></svg>